<mxfile host="app.diagrams.net" modified="2024-06-23T12:28:55.734Z" agent="Mozilla/5.0 (Windows NT 10.0; Win64; x64) AppleWebKit/537.36 (KHTML, like Gecko) Chrome/126.0.0.0 Safari/537.36" etag="MDROWqzocCBYSv0yoUrh" version="24.6.2" type="github">
  <diagram name="第 1 页" id="IcJJjQpHcXA6C_mBIaFK">
    <mxGraphModel dx="1195" dy="653" grid="0" gridSize="10" guides="1" tooltips="1" connect="1" arrows="1" fold="1" page="1" pageScale="1" pageWidth="1169" pageHeight="827" math="0" shadow="0">
      <root>
        <mxCell id="0" />
        <mxCell id="1" parent="0" />
        <mxCell id="8GsTIee4yTmT1AdwNU5E-1" value="user utterance" style="rounded=1;whiteSpace=wrap;html=1;fillColor=#dae8fc;strokeColor=#6c8ebf;" vertex="1" parent="1">
          <mxGeometry x="72" y="149" width="50" height="290" as="geometry" />
        </mxCell>
        <mxCell id="8GsTIee4yTmT1AdwNU5E-3" value="feature&lt;br&gt;extraction" style="rounded=1;whiteSpace=wrap;html=1;fillColor=#d5e8d4;strokeColor=#82b366;" vertex="1" parent="1">
          <mxGeometry x="171" y="151" width="50" height="290" as="geometry" />
        </mxCell>
        <mxCell id="8GsTIee4yTmT1AdwNU5E-4" value="Linear&lt;br&gt;layer" style="rounded=1;whiteSpace=wrap;html=1;fillColor=#fff2cc;strokeColor=#d6b656;" vertex="1" parent="1">
          <mxGeometry x="271" y="147" width="50" height="290" as="geometry" />
        </mxCell>
        <mxCell id="8GsTIee4yTmT1AdwNU5E-5" value="Linear&lt;br&gt;layer" style="rounded=1;whiteSpace=wrap;html=1;fillColor=#fff2cc;strokeColor=#d6b656;" vertex="1" parent="1">
          <mxGeometry x="370" y="145" width="50" height="290" as="geometry" />
        </mxCell>
        <mxCell id="8GsTIee4yTmT1AdwNU5E-6" value="" style="endArrow=classic;html=1;rounded=0;" edge="1" parent="1">
          <mxGeometry width="50" height="50" relative="1" as="geometry">
            <mxPoint x="127" y="298" as="sourcePoint" />
            <mxPoint x="167" y="298" as="targetPoint" />
          </mxGeometry>
        </mxCell>
        <mxCell id="8GsTIee4yTmT1AdwNU5E-7" value="" style="endArrow=classic;html=1;rounded=0;" edge="1" parent="1">
          <mxGeometry width="50" height="50" relative="1" as="geometry">
            <mxPoint x="226" y="295.58" as="sourcePoint" />
            <mxPoint x="266" y="295.58" as="targetPoint" />
          </mxGeometry>
        </mxCell>
        <mxCell id="8GsTIee4yTmT1AdwNU5E-8" value="" style="endArrow=classic;html=1;rounded=0;" edge="1" parent="1">
          <mxGeometry width="50" height="50" relative="1" as="geometry">
            <mxPoint x="327" y="295.58" as="sourcePoint" />
            <mxPoint x="367" y="295.58" as="targetPoint" />
          </mxGeometry>
        </mxCell>
        <mxCell id="8GsTIee4yTmT1AdwNU5E-9" value="" style="endArrow=classic;html=1;rounded=0;" edge="1" parent="1">
          <mxGeometry width="50" height="50" relative="1" as="geometry">
            <mxPoint x="425" y="295.58" as="sourcePoint" />
            <mxPoint x="465" y="295.58" as="targetPoint" />
          </mxGeometry>
        </mxCell>
      </root>
    </mxGraphModel>
  </diagram>
</mxfile>
